# xmcd
#
# Track frame offsets: 
#        150
#        10218
#        30501
#        50900
#        67737
#        91395
#        122410
#        143899
#        159147
#        179829
#        185780
#        202681
#
# Disc length: 2977 seconds
#
# Revision: 2
# Processed by: cddbd v1.5.2PL0 Copyright (c) Steve Scherf et al.
# Submitted via: ExactAudioCopy v0.99pb3
#
DISCID=9c0b9f0c
DTITLE=Veronika Fischer and Band - Goldene Brücken
DYEAR=1900
DGENRE=
TTITLE0=Overtüre
TTITLE1=Goldene Brücken
TTITLE2=Insel im Norden
TTITLE3=Kinder des Sonntags
TTITLE4=Der Vagabund
TTITLE5=Niemals mehr
TTITLE6=In uralter Zeit
TTITLE7=Zeit für ein Kind
TTITLE8=Wenn der Vorhang fällt
TTITLE9=Nachspiel
TTITLE10=Bonus: Samariterblues
TTITLE11=Bonus: Nur mit dir leben
EXTD=
EXTT0=
EXTT1=
EXTT2=
EXTT3=
EXTT4=
EXTT5=
EXTT6=
EXTT7=
EXTT8=
EXTT9=
EXTT10=
EXTT11=
PLAYORDER=
